<?xml version="1.0" encoding="UTF-8" standalone="no"?>
<!DOCTYPE svg PUBLIC "-//W3C//DTD SVG 1.1//EN"
 "http://www.w3.org/Graphics/SVG/1.1/DTD/svg11.dtd">
<!-- Generated by graphviz version 2.24.0 (20090616.2323)
 -->
<!-- Title: SGF_STATE_MACHINE Pages: 1 -->
<svg width="482pt" height="818pt"
 viewBox="0.00 0.00 482.00 818.00" xmlns="http://www.w3.org/2000/svg" xmlns:xlink="http://www.w3.org/1999/xlink">
<g id="graph1" class="graph" transform="scale(1 1) rotate(0) translate(4 814)">
<title>SGF_STATE_MACHINE</title>
<polygon fill="white" stroke="white" points="-4,5 -4,-814 479,-814 479,5 -4,5"/>
<!-- begin -->
<g id="node1" class="node"><title>begin</title>
<ellipse fill="none" stroke="black" cx="415" cy="-792" rx="29.8234" ry="18"/>
<text text-anchor="middle" x="415" y="-786.4" font-family="Times,serif" font-size="14.00">begin</text>
</g>
<!-- game_begin -->
<g id="node28" class="node"><title>game_begin</title>
<ellipse fill="none" stroke="black" cx="347" cy="-706" rx="54.9558" ry="18"/>
<text text-anchor="middle" x="347" y="-700.4" font-family="Times,serif" font-size="14.00">game_begin</text>
</g>
<!-- begin&#45;&gt;game_begin -->
<g id="edge36" class="edge"><title>begin&#45;&gt;game_begin</title>
<path fill="none" stroke="black" d="M401.889,-775.418C392.081,-763.015 378.487,-745.822 367.282,-731.651"/>
<polygon fill="black" stroke="black" points="369.955,-729.388 361.007,-723.715 364.464,-733.73 369.955,-729.388"/>
<text text-anchor="middle" x="388.5" y="-743.4" font-family="Times,serif" font-size="14.00">(</text>
</g>
<!-- invalid -->
<g id="node30" class="node"><title>invalid</title>
<ellipse fill="none" stroke="black" cx="438" cy="-620" rx="36.0055" ry="18"/>
<text text-anchor="middle" x="438" y="-614.4" font-family="Times,serif" font-size="14.00">invalid</text>
</g>
<!-- begin&#45;&gt;invalid -->
<g id="edge38" class="edge"><title>begin&#45;&gt;invalid</title>
<path fill="none" stroke="black" d="M417.418,-773.918C421.421,-743.981 429.456,-683.897 434.216,-648.299"/>
<polygon fill="black" stroke="black" points="437.724,-648.473 435.58,-638.098 430.785,-647.546 437.724,-648.473"/>
<text text-anchor="middle" x="439" y="-700.4" font-family="Times,serif" font-size="14.00">[^s]</text>
</g>
<!-- value_end -->
<g id="node2" class="node"><title>value_end</title>
<ellipse fill="none" stroke="black" cx="275" cy="-190" rx="46.877" ry="18"/>
<text text-anchor="middle" x="275" y="-184.4" font-family="Times,serif" font-size="14.00">value_end</text>
</g>
<!-- game_node -->
<g id="node3" class="node"><title>game_node</title>
<ellipse fill="none" stroke="black" cx="332" cy="-620" rx="51.9298" ry="18"/>
<text text-anchor="middle" x="332" y="-614.4" font-family="Times,serif" font-size="14.00">game_node</text>
</g>
<!-- value_end&#45;&gt;game_node -->
<g id="edge2" class="edge"><title>value_end&#45;&gt;game_node</title>
<path fill="none" stroke="black" d="M287.865,-207.459C298.889,-224.171 313,-250.536 313,-276 313,-534 313,-534 313,-534 313,-553.754 317.839,-575.471 322.632,-592.14"/>
<polygon fill="black" stroke="black" points="319.312,-593.252 325.567,-601.804 326.01,-591.218 319.312,-593.252"/>
<text text-anchor="middle" x="315.5" y="-399.4" font-family="Times,serif" font-size="14.00">;</text>
</g>
<!-- var_begin -->
<g id="node5" class="node"><title>var_begin</title>
<ellipse fill="none" stroke="black" cx="288" cy="-18" rx="44.9809" ry="18"/>
<text text-anchor="middle" x="288" y="-12.4" font-family="Times,serif" font-size="14.00">var_begin</text>
</g>
<!-- value_end&#45;&gt;var_begin -->
<g id="edge4" class="edge"><title>value_end&#45;&gt;var_begin</title>
<path fill="none" stroke="black" d="M276.367,-171.918C278.629,-141.981 283.171,-81.8972 285.861,-46.2989"/>
<polygon fill="black" stroke="black" points="289.368,-46.3331 286.632,-36.0977 282.388,-45.8055 289.368,-46.3331"/>
<text text-anchor="middle" x="285.5" y="-98.4" font-family="Times,serif" font-size="14.00">(</text>
</g>
<!-- prop_name_begin -->
<g id="node7" class="node"><title>prop_name_begin</title>
<ellipse fill="none" stroke="black" cx="205" cy="-534" rx="74.0375" ry="18"/>
<text text-anchor="middle" x="205" y="-528.4" font-family="Times,serif" font-size="14.00">prop_name_begin</text>
</g>
<!-- value_end&#45;&gt;prop_name_begin -->
<g id="edge6" class="edge"><title>value_end&#45;&gt;prop_name_begin</title>
<path fill="none" stroke="black" d="M271.861,-208.066C268.216,-228.834 261.941,-263.929 256,-294 240.791,-370.989 221.059,-461.463 211.191,-506.14"/>
<polygon fill="black" stroke="black" points="207.759,-505.452 209.016,-515.972 214.594,-506.965 207.759,-505.452"/>
<text text-anchor="middle" x="272.5" y="-356.4" font-family="Times,serif" font-size="14.00">[a&#45;zA&#45;Z]</text>
</g>
<!-- value_begin -->
<g id="node9" class="node"><title>value_begin</title>
<ellipse fill="none" stroke="black" cx="135" cy="-362" rx="53.8258" ry="18"/>
<text text-anchor="middle" x="135" y="-356.4" font-family="Times,serif" font-size="14.00">value_begin</text>
</g>
<!-- value_end&#45;&gt;value_begin -->
<g id="edge8" class="edge"><title>value_end&#45;&gt;value_begin</title>
<path fill="none" stroke="black" d="M267.913,-207.965C254.037,-242.836 223.863,-317.071 215,-326 206.701,-334.36 196.115,-340.955 185.38,-346.087"/>
<polygon fill="black" stroke="black" points="183.707,-343 175.963,-350.229 186.525,-349.407 183.707,-343"/>
<text text-anchor="middle" x="249.5" y="-270.4" font-family="Times,serif" font-size="14.00">[</text>
</g>
<!-- var_end -->
<g id="node11" class="node"><title>var_end</title>
<ellipse fill="none" stroke="black" cx="410" cy="-104" rx="38.0318" ry="18"/>
<text text-anchor="middle" x="410" y="-98.4" font-family="Times,serif" font-size="14.00">var_end</text>
</g>
<!-- value_end&#45;&gt;var_end -->
<g id="edge10" class="edge"><title>value_end&#45;&gt;var_end</title>
<path fill="none" stroke="black" d="M299.447,-174.426C321.644,-160.286 354.5,-139.355 378.627,-123.986"/>
<polygon fill="black" stroke="black" points="380.531,-126.923 387.085,-118.598 376.77,-121.019 380.531,-126.923"/>
<text text-anchor="middle" x="353.5" y="-141.4" font-family="Times,serif" font-size="14.00">)</text>
</g>
<!-- game_node&#45;&gt;var_begin -->
<g id="edge30" class="edge"><title>game_node&#45;&gt;var_begin</title>
<path fill="none" stroke="black" d="M280.489,-617.305C187.237,-611.006 0,-591.234 0,-534 0,-534 0,-534 0,-104 0,-55.7235 150.456,-32.3062 233.873,-23.0328"/>
<polygon fill="black" stroke="black" points="234.379,-26.4986 243.945,-21.9455 233.628,-19.5391 234.379,-26.4986"/>
<text text-anchor="middle" x="2.5" y="-313.4" font-family="Times,serif" font-size="14.00">(</text>
</g>
<!-- game_node&#45;&gt;prop_name_begin -->
<g id="edge32" class="edge"><title>game_node&#45;&gt;prop_name_begin</title>
<path fill="none" stroke="black" d="M292.628,-608.124C277.192,-602.332 259.889,-594.346 246,-584 237.222,-577.462 229.184,-568.651 222.594,-560.247"/>
<polygon fill="black" stroke="black" points="225.292,-558.011 216.514,-552.079 219.677,-562.19 225.292,-558.011"/>
<text text-anchor="middle" x="272.5" y="-571.4" font-family="Times,serif" font-size="14.00">[a&#45;zA&#45;Z]</text>
</g>
<!-- game_node&#45;&gt;var_end -->
<g id="edge34" class="edge"><title>game_node&#45;&gt;var_end</title>
<path fill="none" stroke="black" d="M354.734,-603.648C373.478,-588.089 397,-562.822 397,-534 397,-534 397,-534 397,-190 397,-170.553 400.29,-148.907 403.56,-132.196"/>
<polygon fill="black" stroke="black" points="407.071,-132.502 405.671,-122 400.216,-131.083 407.071,-132.502"/>
<text text-anchor="middle" x="399.5" y="-356.4" font-family="Times,serif" font-size="14.00">)</text>
</g>
<!-- var_begin&#45;&gt;game_node -->
<g id="edge50" class="edge"><title>var_begin&#45;&gt;game_node</title>
<path fill="none" stroke="black" d="M297.026,-35.885C314.446,-72.1079 351,-157.153 351,-233 351,-534 351,-534 351,-534 351,-553.754 346.161,-575.471 341.368,-592.14"/>
<polygon fill="black" stroke="black" points="337.99,-591.218 338.433,-601.804 344.688,-593.252 337.99,-591.218"/>
<text text-anchor="middle" x="353.5" y="-313.4" font-family="Times,serif" font-size="14.00">;</text>
</g>
<!-- prop_name_begin&#45;&gt;value_begin -->
<g id="edge42" class="edge"><title>prop_name_begin&#45;&gt;value_begin</title>
<path fill="none" stroke="black" d="M200.405,-515.96C194.788,-494.917 184.474,-459.277 172,-430 165.997,-415.91 158.007,-400.891 150.988,-388.561"/>
<polygon fill="black" stroke="black" points="153.904,-386.611 145.859,-379.716 147.848,-390.122 153.904,-386.611"/>
<text text-anchor="middle" x="188.5" y="-442.4" font-family="Times,serif" font-size="14.00">[</text>
</g>
<!-- prop_name -->
<g id="node32" class="node"><title>prop_name</title>
<ellipse fill="none" stroke="black" cx="113" cy="-448" rx="49.9024" ry="18"/>
<text text-anchor="middle" x="113" y="-442.4" font-family="Times,serif" font-size="14.00">prop_name</text>
</g>
<!-- prop_name_begin&#45;&gt;prop_name -->
<g id="edge40" class="edge"><title>prop_name_begin&#45;&gt;prop_name</title>
<path fill="none" stroke="black" d="M161.615,-519.167C150.843,-513.841 140.08,-506.887 132,-498 126.378,-491.816 122.36,-483.801 119.514,-476.006"/>
<polygon fill="black" stroke="black" points="122.835,-474.898 116.503,-466.404 116.156,-476.993 122.835,-474.898"/>
<text text-anchor="middle" x="158.5" y="-485.4" font-family="Times,serif" font-size="14.00">[a&#45;zA&#45;Z]</text>
</g>
<!-- value_begin&#45;&gt;value_end -->
<g id="edge22" class="edge"><title>value_begin&#45;&gt;value_end</title>
<path fill="none" stroke="black" d="M149.194,-344.561C174.1,-313.962 225.752,-250.504 254.523,-215.157"/>
<polygon fill="black" stroke="black" points="257.378,-217.194 260.976,-207.229 251.949,-212.775 257.378,-217.194"/>
<text text-anchor="middle" x="221.5" y="-270.4" font-family="Times,serif" font-size="14.00">]</text>
</g>
<!-- value -->
<g id="node17" class="node"><title>value</title>
<ellipse fill="none" stroke="black" cx="97" cy="-276" rx="29.1856" ry="18"/>
<text text-anchor="middle" x="97" y="-270.4" font-family="Times,serif" font-size="14.00">value</text>
</g>
<!-- value_begin&#45;&gt;value -->
<g id="edge18" class="edge"><title>value_begin&#45;&gt;value</title>
<path fill="none" stroke="black" d="M127.126,-344.181C121.843,-332.225 114.789,-316.258 108.834,-302.782"/>
<polygon fill="black" stroke="black" points="111.977,-301.234 104.734,-293.502 105.574,-304.064 111.977,-301.234"/>
<text text-anchor="middle" x="129.5" y="-313.4" font-family="Times,serif" font-size="14.00">[^]]</text>
</g>
<!-- value_escape -->
<g id="node19" class="node"><title>value_escape</title>
<ellipse fill="none" stroke="black" cx="86" cy="-190" rx="58.1142" ry="18"/>
<text text-anchor="middle" x="86" y="-184.4" font-family="Times,serif" font-size="14.00">value_escape</text>
</g>
<!-- value_begin&#45;&gt;value_escape -->
<g id="edge20" class="edge"><title>value_begin&#45;&gt;value_escape</title>
<path fill="none" stroke="black" d="M106.408,-346.529C87.9806,-334.808 65.5584,-316.832 55,-294 43.306,-268.712 55.4654,-237.938 67.8228,-216.453"/>
<polygon fill="black" stroke="black" points="70.8462,-218.217 73.062,-207.857 64.8689,-214.574 70.8462,-218.217"/>
<text text-anchor="middle" x="57" y="-270.4" font-family="Times,serif" font-size="14.00">\</text>
</g>
<!-- var_end&#45;&gt;game_node -->
<g id="edge12" class="edge"><title>var_end&#45;&gt;game_node</title>
<path fill="none" stroke="black" d="M419.324,-121.576C427.469,-138.587 438,-165.348 438,-190 438,-534 438,-534 438,-534 438,-559.255 429.451,-566.755 411,-584 402.313,-592.119 391.478,-598.653 380.643,-603.808"/>
<polygon fill="black" stroke="black" points="378.91,-600.747 371.176,-607.987 381.738,-607.15 378.91,-600.747"/>
<text text-anchor="middle" x="440.5" y="-356.4" font-family="Times,serif" font-size="14.00">;</text>
</g>
<!-- var_end&#45;&gt;var_begin -->
<g id="edge14" class="edge"><title>var_end&#45;&gt;var_begin</title>
<path fill="none" stroke="black" d="M395.13,-87.404C385.262,-76.9986 371.655,-63.7566 358,-54 348.721,-47.3699 338.053,-41.2368 327.887,-35.9812"/>
<polygon fill="black" stroke="black" points="329.257,-32.7529 318.747,-31.4123 326.127,-39.0143 329.257,-32.7529"/>
<text text-anchor="middle" x="377.5" y="-55.4" font-family="Times,serif" font-size="14.00">(</text>
</g>
<!-- game_end -->
<g id="node15" class="node"><title>game_end</title>
<ellipse fill="none" stroke="black" cx="410" cy="-18" rx="46.877" ry="18"/>
<text text-anchor="middle" x="410" y="-12.4" font-family="Times,serif" font-size="14.00">game_end</text>
</g>
<!-- var_end&#45;&gt;game_end -->
<g id="edge16" class="edge"><title>var_end&#45;&gt;game_end</title>
<path fill="none" stroke="black" d="M410,-85.7616C410,-74.3597 410,-59.4342 410,-46.494"/>
<polygon fill="black" stroke="black" points="413.5,-46.2121 410,-36.2121 406.5,-46.2121 413.5,-46.2121"/>
<text text-anchor="middle" x="423.5" y="-55.4" font-family="Times,serif" font-size="14.00">EOS</text>
</g>
<!-- value&#45;&gt;value_end -->
<g id="edge28" class="edge"><title>value&#45;&gt;value_end</title>
<path fill="none" stroke="black" d="M117.099,-262.919C134.009,-252.224 159.036,-237.108 182,-226 197.488,-218.508 214.966,-211.408 230.554,-205.524"/>
<polygon fill="black" stroke="black" points="231.824,-208.786 239.982,-202.026 229.389,-202.224 231.824,-208.786"/>
<text text-anchor="middle" x="184.5" y="-227.4" font-family="Times,serif" font-size="14.00">]</text>
</g>
<!-- value&#45;&gt;value -->
<g id="edge26" class="edge"><title>value&#45;&gt;value</title>
<path fill="none" stroke="black" d="M123.574,-283.806C134.629,-284.344 144,-281.742 144,-276 144,-272.142 139.77,-269.701 133.641,-268.679"/>
<polygon fill="black" stroke="black" points="133.731,-265.179 123.574,-268.194 133.394,-272.171 133.731,-265.179"/>
<text text-anchor="middle" x="154.5" y="-270.4" font-family="Times,serif" font-size="14.00">[^]]</text>
</g>
<!-- value&#45;&gt;value_escape -->
<g id="edge24" class="edge"><title>value&#45;&gt;value_escape</title>
<path fill="none" stroke="black" d="M94.6672,-257.762C93.2088,-246.36 91.2997,-231.434 89.6446,-218.494"/>
<polygon fill="black" stroke="black" points="93.07,-217.687 88.3295,-208.212 86.1266,-218.575 93.07,-217.687"/>
<text text-anchor="middle" x="95" y="-227.4" font-family="Times,serif" font-size="14.00">\</text>
</g>
<!-- value_escape&#45;&gt;value -->
<g id="edge48" class="edge"><title>value_escape&#45;&gt;value</title>
<path fill="none" stroke="black" d="M86.3946,-208.121C86.7765,-217.645 87.5269,-229.493 89,-240 89.3786,-242.701 89.8528,-245.499 90.3801,-248.288"/>
<polygon fill="black" stroke="black" points="86.9714,-249.087 92.4476,-258.157 93.8226,-247.652 86.9714,-249.087"/>
<text text-anchor="middle" x="90.5" y="-227.4" font-family="Times,serif" font-size="14.00">.</text>
</g>
<!-- game_begin&#45;&gt;game_node -->
<g id="edge44" class="edge"><title>game_begin&#45;&gt;game_node</title>
<path fill="none" stroke="black" d="M343.819,-687.762C341.81,-676.246 339.175,-661.135 336.902,-648.106"/>
<polygon fill="black" stroke="black" points="340.343,-647.462 335.177,-638.212 333.447,-648.665 340.343,-647.462"/>
<text text-anchor="middle" x="343.5" y="-657.4" font-family="Times,serif" font-size="14.00">;</text>
</g>
<!-- game_begin&#45;&gt;invalid -->
<g id="edge46" class="edge"><title>game_begin&#45;&gt;invalid</title>
<path fill="none" stroke="black" d="M365.415,-688.597C379.302,-675.473 398.481,-657.348 413.637,-643.024"/>
<polygon fill="black" stroke="black" points="416.283,-645.34 421.147,-635.927 411.475,-640.252 416.283,-645.34"/>
<text text-anchor="middle" x="409" y="-657.4" font-family="Times,serif" font-size="14.00">[^s]</text>
</g>
<!-- prop_name&#45;&gt;value_begin -->
<g id="edge52" class="edge"><title>prop_name&#45;&gt;value_begin</title>
<path fill="none" stroke="black" d="M117.666,-429.762C120.612,-418.246 124.477,-403.135 127.81,-390.106"/>
<polygon fill="black" stroke="black" points="131.253,-390.768 130.341,-380.212 124.472,-389.033 131.253,-390.768"/>
<text text-anchor="middle" x="128.5" y="-399.4" font-family="Times,serif" font-size="14.00">[</text>
</g>
</g>
</svg>
