<?xml version="1.0" encoding="UTF-8" standalone="no"?>
<!DOCTYPE svg PUBLIC "-//W3C//DTD SVG 1.1//EN"
 "http://www.w3.org/Graphics/SVG/1.1/DTD/svg11.dtd">
<!-- Generated by graphviz version 2.24.0 (20090616.2323)
 -->
<!-- Title: SGF_STATE_MACHINE Pages: 1 -->
<svg width="352pt" height="692pt"
 viewBox="0.00 0.00 352.00 692.00" xmlns="http://www.w3.org/2000/svg" xmlns:xlink="http://www.w3.org/1999/xlink">
<g id="graph1" class="graph" transform="scale(1 1) rotate(0) translate(4 688)">
<title>SGF_STATE_MACHINE</title>
<polygon fill="white" stroke="white" points="-4,5 -4,-688 349,-688 349,5 -4,5"/>
<!-- begin -->
<g id="node1" class="node"><title>begin</title>
<ellipse fill="none" stroke="black" cx="177" cy="-666" rx="29.8234" ry="18"/>
<text text-anchor="middle" x="177" y="-660.4" font-family="Times,serif" font-size="14.00">begin</text>
</g>
<!-- game_begin -->
<g id="node28" class="node"><title>game_begin</title>
<ellipse fill="none" stroke="black" cx="136" cy="-594" rx="54.9558" ry="18"/>
<text text-anchor="middle" x="136" y="-588.4" font-family="Times,serif" font-size="14.00">game_begin</text>
</g>
<!-- begin&#45;&gt;game_begin -->
<g id="edge36" class="edge"><title>begin&#45;&gt;game_begin</title>
<path fill="none" stroke="black" d="M167.284,-648.937C162.474,-640.491 156.558,-630.102 151.17,-620.64"/>
<polygon fill="black" stroke="black" points="154.209,-618.903 146.219,-611.945 148.126,-622.367 154.209,-618.903"/>
</g>
<!-- invalid -->
<g id="node30" class="node"><title>invalid</title>
<ellipse fill="none" stroke="black" cx="219" cy="-522" rx="36.0055" ry="18"/>
<text text-anchor="middle" x="219" y="-516.4" font-family="Times,serif" font-size="14.00">invalid</text>
</g>
<!-- begin&#45;&gt;invalid -->
<g id="edge38" class="edge"><title>begin&#45;&gt;invalid</title>
<path fill="none" stroke="black" d="M185.559,-648.33C190.329,-637.94 196.079,-624.44 200,-612 206.391,-591.724 211.273,-568.198 214.487,-550.285"/>
<polygon fill="black" stroke="black" points="217.977,-550.645 216.229,-540.196 211.079,-549.455 217.977,-550.645"/>
</g>
<!-- value_end -->
<g id="node2" class="node"><title>value_end</title>
<ellipse fill="none" stroke="black" cx="108" cy="-162" rx="46.877" ry="18"/>
<text text-anchor="middle" x="108" y="-156.4" font-family="Times,serif" font-size="14.00">value_end</text>
</g>
<!-- game_node -->
<g id="node3" class="node"><title>game_node</title>
<ellipse fill="none" stroke="black" cx="113" cy="-522" rx="51.9298" ry="18"/>
<text text-anchor="middle" x="113" y="-516.4" font-family="Times,serif" font-size="14.00">game_node</text>
</g>
<!-- value_end&#45;&gt;game_node -->
<g id="edge2" class="edge"><title>value_end&#45;&gt;game_node</title>
<path fill="none" stroke="black" d="M98.2446,-180.048C84.7417,-206.76 62,-258.76 62,-306 62,-378 62,-378 62,-378 62,-418.882 66.1592,-429.907 81,-468 84.6605,-477.396 89.8555,-487.054 94.9975,-495.558"/>
<polygon fill="black" stroke="black" points="92.1904,-497.668 100.481,-504.265 98.1137,-493.938 92.1904,-497.668"/>
</g>
<!-- var_begin -->
<g id="node5" class="node"><title>var_begin</title>
<ellipse fill="none" stroke="black" cx="45" cy="-18" rx="44.9809" ry="18"/>
<text text-anchor="middle" x="45" y="-12.4" font-family="Times,serif" font-size="14.00">var_begin</text>
</g>
<!-- value_end&#45;&gt;var_begin -->
<g id="edge4" class="edge"><title>value_end&#45;&gt;var_begin</title>
<path fill="none" stroke="black" d="M100.148,-144.053C89.302,-119.262 69.6403,-74.3207 56.9603,-45.3378"/>
<polygon fill="black" stroke="black" points="60.1654,-43.9314 52.9506,-36.1727 53.7523,-46.7372 60.1654,-43.9314"/>
</g>
<!-- prop_name_begin -->
<g id="node7" class="node"><title>prop_name_begin</title>
<ellipse fill="none" stroke="black" cx="164" cy="-450" rx="74.0375" ry="18"/>
<text text-anchor="middle" x="164" y="-444.4" font-family="Times,serif" font-size="14.00">prop_name_begin</text>
</g>
<!-- value_end&#45;&gt;prop_name_begin -->
<g id="edge6" class="edge"><title>value_end&#45;&gt;prop_name_begin</title>
<path fill="none" stroke="black" d="M110.639,-180.045C115.108,-210.032 124.688,-271.978 135,-324 141.713,-357.866 150.828,-396.521 157.035,-421.985"/>
<polygon fill="black" stroke="black" points="153.64,-422.834 159.421,-431.713 160.438,-421.167 153.64,-422.834"/>
</g>
<!-- value_begin -->
<g id="node9" class="node"><title>value_begin</title>
<ellipse fill="none" stroke="black" cx="198" cy="-306" rx="53.8258" ry="18"/>
<text text-anchor="middle" x="198" y="-300.4" font-family="Times,serif" font-size="14.00">value_begin</text>
</g>
<!-- value_end&#45;&gt;value_begin -->
<g id="edge8" class="edge"><title>value_end&#45;&gt;value_begin</title>
<path fill="none" stroke="black" d="M123.37,-179.272C141.463,-204.067 170.427,-249.974 186.641,-279.199"/>
<polygon fill="black" stroke="black" points="183.593,-280.921 191.427,-288.053 189.751,-277.592 183.593,-280.921"/>
</g>
<!-- game_var_end -->
<g id="node11" class="node"><title>game_var_end</title>
<ellipse fill="none" stroke="black" cx="185" cy="-90" rx="62.0357" ry="18"/>
<text text-anchor="middle" x="185" y="-84.4" font-family="Times,serif" font-size="14.00">game_var_end</text>
</g>
<!-- value_end&#45;&gt;game_var_end -->
<g id="edge10" class="edge"><title>value_end&#45;&gt;game_var_end</title>
<path fill="none" stroke="black" d="M125.859,-145.301C135.654,-136.141 147.981,-124.615 158.842,-114.46"/>
<polygon fill="black" stroke="black" points="161.52,-116.747 166.434,-107.36 156.739,-111.634 161.52,-116.747"/>
</g>
<!-- game_node&#45;&gt;var_begin -->
<g id="edge30" class="edge"><title>game_node&#45;&gt;var_begin</title>
<path fill="none" stroke="black" d="M86.8753,-506.257C54.9895,-482.056 6,-432.735 6,-378 6,-378 6,-378 6,-162 6,-120.425 18.1332,-73.4904 29.2821,-44.8277"/>
<polygon fill="black" stroke="black" points="32.557,-46.0676 33.163,-35.4901 26.093,-43.381 32.557,-46.0676"/>
</g>
<!-- game_node&#45;&gt;prop_name_begin -->
<g id="edge32" class="edge"><title>game_node&#45;&gt;prop_name_begin</title>
<path fill="none" stroke="black" d="M125.607,-504.202C131.614,-495.721 138.917,-485.412 145.534,-476.07"/>
<polygon fill="black" stroke="black" points="148.437,-478.026 151.362,-467.843 142.725,-473.98 148.437,-478.026"/>
</g>
<!-- game_node&#45;&gt;game_var_end -->
<g id="edge34" class="edge"><title>game_node&#45;&gt;game_var_end</title>
<path fill="none" stroke="black" d="M149.729,-509.227C175.72,-500.197 210.487,-486.416 238,-468 284.49,-436.882 326,-433.944 326,-378 326,-378 326,-378 326,-234 326,-190.752 318.717,-175.422 289,-144 273.919,-128.054 253.161,-116.287 234.1,-107.883"/>
<polygon fill="black" stroke="black" points="235.196,-104.547 224.62,-103.907 232.489,-111.002 235.196,-104.547"/>
</g>
<!-- var_begin&#45;&gt;game_node -->
<g id="edge50" class="edge"><title>var_begin&#45;&gt;game_node</title>
<path fill="none" stroke="black" d="M44.5092,-36.385C38.8315,-63.5162 24,-116.034 24,-162 24,-378 24,-378 24,-378 24,-426.716 62.8083,-471.144 89.3389,-497.389"/>
<polygon fill="black" stroke="black" points="87.1733,-500.164 96.7876,-504.616 92.0478,-495.14 87.1733,-500.164"/>
</g>
<!-- prop_name_begin&#45;&gt;value_begin -->
<g id="edge42" class="edge"><title>prop_name_begin&#45;&gt;value_begin</title>
<path fill="none" stroke="black" d="M163.054,-431.704C162.599,-413.255 163.258,-384.131 170,-360 172.602,-350.689 176.923,-341.132 181.402,-332.695"/>
<polygon fill="black" stroke="black" points="184.598,-334.152 186.442,-323.719 178.494,-330.725 184.598,-334.152"/>
</g>
<!-- prop_name -->
<g id="node32" class="node"><title>prop_name</title>
<ellipse fill="none" stroke="black" cx="229" cy="-378" rx="49.9024" ry="18"/>
<text text-anchor="middle" x="229" y="-372.4" font-family="Times,serif" font-size="14.00">prop_name</text>
</g>
<!-- prop_name_begin&#45;&gt;prop_name -->
<g id="edge40" class="edge"><title>prop_name_begin&#45;&gt;prop_name</title>
<path fill="none" stroke="black" d="M180.067,-432.202C188.077,-423.33 197.893,-412.457 206.626,-402.784"/>
<polygon fill="black" stroke="black" points="209.239,-405.113 213.342,-395.345 204.043,-400.422 209.239,-405.113"/>
</g>
<!-- value_begin&#45;&gt;value_end -->
<g id="edge22" class="edge"><title>value_begin&#45;&gt;value_end</title>
<path fill="none" stroke="black" d="M182.559,-288.63C164.445,-263.791 135.501,-217.907 119.316,-188.723"/>
<polygon fill="black" stroke="black" points="122.372,-187.017 114.54,-179.883 116.214,-190.345 122.372,-187.017"/>
</g>
<!-- value -->
<g id="node17" class="node"><title>value</title>
<ellipse fill="none" stroke="black" cx="213" cy="-234" rx="29.1856" ry="18"/>
<text text-anchor="middle" x="213" y="-228.4" font-family="Times,serif" font-size="14.00">value</text>
</g>
<!-- value_begin&#45;&gt;value -->
<g id="edge18" class="edge"><title>value_begin&#45;&gt;value</title>
<path fill="none" stroke="black" d="M201.785,-287.831C203.432,-279.927 205.398,-270.487 207.222,-261.737"/>
<polygon fill="black" stroke="black" points="210.655,-262.417 209.268,-251.913 203.802,-260.989 210.655,-262.417"/>
</g>
<!-- value_escape -->
<g id="node19" class="node"><title>value_escape</title>
<ellipse fill="none" stroke="black" cx="231" cy="-162" rx="58.1142" ry="18"/>
<text text-anchor="middle" x="231" y="-156.4" font-family="Times,serif" font-size="14.00">value_escape</text>
</g>
<!-- value_begin&#45;&gt;value_escape -->
<g id="edge20" class="edge"><title>value_begin&#45;&gt;value_escape</title>
<path fill="none" stroke="black" d="M229.096,-291.016C244.089,-281.985 260.607,-268.927 269,-252 279.489,-230.845 267.331,-206.082 254.056,-187.892"/>
<polygon fill="black" stroke="black" points="256.452,-185.272 247.544,-179.535 250.93,-189.574 256.452,-185.272"/>
</g>
<!-- game_var_end&#45;&gt;game_node -->
<g id="edge12" class="edge"><title>game_var_end&#45;&gt;game_node</title>
<path fill="none" stroke="black" d="M233.596,-101.346C258.52,-109.755 287.503,-123.385 307,-144 336.717,-175.422 344,-190.752 344,-234 344,-378 344,-378 344,-378 344,-433.944 302.49,-436.882 256,-468 228.778,-486.221 194.456,-499.905 166.168,-508.939"/>
<polygon fill="black" stroke="black" points="164.96,-505.649 156.435,-511.94 167.022,-512.338 164.96,-505.649"/>
</g>
<!-- game_var_end&#45;&gt;var_begin -->
<g id="edge14" class="edge"><title>game_var_end&#45;&gt;var_begin</title>
<path fill="none" stroke="black" d="M154.276,-74.1993C132.912,-63.2118 104.33,-48.5126 81.7559,-36.903"/>
<polygon fill="black" stroke="black" points="83.2956,-33.7592 72.802,-32.2982 80.0942,-39.9842 83.2956,-33.7592"/>
</g>
<!-- game_end -->
<g id="node15" class="node"><title>game_end</title>
<ellipse fill="none" stroke="black" cx="185" cy="-18" rx="46.877" ry="18"/>
<text text-anchor="middle" x="185" y="-12.4" font-family="Times,serif" font-size="14.00">game_end</text>
</g>
<!-- game_var_end&#45;&gt;game_end -->
<g id="edge16" class="edge"><title>game_var_end&#45;&gt;game_end</title>
<path fill="none" stroke="black" d="M185,-71.8314C185,-64.131 185,-54.9743 185,-46.4166"/>
<polygon fill="black" stroke="black" points="188.5,-46.4132 185,-36.4133 181.5,-46.4133 188.5,-46.4132"/>
</g>
<!-- value&#45;&gt;value_end -->
<g id="edge28" class="edge"><title>value&#45;&gt;value_end</title>
<path fill="none" stroke="black" d="M193.25,-220.457C178.037,-210.025 156.714,-195.404 139.2,-183.394"/>
<polygon fill="black" stroke="black" points="141.178,-180.507 130.951,-177.738 137.219,-186.28 141.178,-180.507"/>
</g>
<!-- value&#45;&gt;value -->
<g id="edge26" class="edge"><title>value&#45;&gt;value</title>
<path fill="none" stroke="black" d="M234.268,-246.547C247.453,-249.573 260,-245.391 260,-234 260,-225.635 253.233,-221.157 244.416,-220.567"/>
<polygon fill="black" stroke="black" points="243.926,-217.097 234.268,-221.453 244.534,-224.07 243.926,-217.097"/>
</g>
<!-- value&#45;&gt;value_escape -->
<g id="edge24" class="edge"><title>value&#45;&gt;value_escape</title>
<path fill="none" stroke="black" d="M211.59,-215.831C212.809,-207.841 214.99,-198.282 217.559,-189.451"/>
<polygon fill="black" stroke="black" points="220.897,-190.504 220.594,-179.913 214.227,-188.381 220.897,-190.504"/>
</g>
<!-- value_escape&#45;&gt;value -->
<g id="edge48" class="edge"><title>value_escape&#45;&gt;value</title>
<path fill="none" stroke="black" d="M232.406,-180.199C231.153,-188.395 228.891,-198.236 226.236,-207.247"/>
<polygon fill="black" stroke="black" points="222.85,-206.345 223.106,-216.937 229.511,-208.497 222.85,-206.345"/>
</g>
<!-- game_begin&#45;&gt;game_node -->
<g id="edge44" class="edge"><title>game_begin&#45;&gt;game_node</title>
<path fill="none" stroke="black" d="M130.196,-575.831C127.644,-567.841 124.59,-558.282 121.769,-549.451"/>
<polygon fill="black" stroke="black" points="125.099,-548.374 118.722,-539.913 118.431,-550.504 125.099,-548.374"/>
</g>
<!-- game_begin&#45;&gt;invalid -->
<g id="edge46" class="edge"><title>game_begin&#45;&gt;invalid</title>
<path fill="none" stroke="black" d="M155.67,-576.937C166.917,-567.181 181.154,-554.831 193.279,-544.312"/>
<polygon fill="black" stroke="black" points="195.629,-546.907 200.889,-537.71 191.042,-541.619 195.629,-546.907"/>
</g>
<!-- prop_name&#45;&gt;value_begin -->
<g id="edge52" class="edge"><title>prop_name&#45;&gt;value_begin</title>
<path fill="none" stroke="black" d="M221.337,-360.202C217.835,-352.068 213.608,-342.25 209.719,-333.218"/>
<polygon fill="black" stroke="black" points="212.852,-331.643 205.682,-323.843 206.422,-334.412 212.852,-331.643"/>
</g>
</g>
</svg>
