<?xml version="1.0" encoding="UTF-8" standalone="no"?>
<!DOCTYPE svg PUBLIC "-//W3C//DTD SVG 1.1//EN"
 "http://www.w3.org/Graphics/SVG/1.1/DTD/svg11.dtd">
<!-- Generated by graphviz version 2.24.0 (20090616.2323)
 -->
<!-- Title: SGF_STATE_MACHINE Pages: 1 -->
<svg width="512pt" height="818pt"
 viewBox="0.00 0.00 512.00 818.00" xmlns="http://www.w3.org/2000/svg" xmlns:xlink="http://www.w3.org/1999/xlink">
<g id="graph1" class="graph" transform="scale(1 1) rotate(0) translate(4 814)">
<title>SGF_STATE_MACHINE</title>
<polygon fill="white" stroke="white" points="-4,5 -4,-814 509,-814 509,5 -4,5"/>
<!-- begin -->
<g id="node1" class="node"><title>begin</title>
<ellipse fill="none" stroke="black" cx="445" cy="-792" rx="29.8234" ry="18"/>
<text text-anchor="middle" x="445" y="-786.4" font-family="Times,serif" font-size="14.00">begin</text>
</g>
<!-- game_begin -->
<g id="node28" class="node"><title>game_begin</title>
<ellipse fill="none" stroke="black" cx="377" cy="-706" rx="54.9558" ry="18"/>
<text text-anchor="middle" x="377" y="-700.4" font-family="Times,serif" font-size="14.00">game_begin</text>
</g>
<!-- begin&#45;&gt;game_begin -->
<g id="edge36" class="edge"><title>begin&#45;&gt;game_begin</title>
<path fill="none" stroke="black" d="M431.889,-775.418C422.081,-763.015 408.487,-745.822 397.282,-731.651"/>
<polygon fill="black" stroke="black" points="399.955,-729.388 391.007,-723.715 394.464,-733.73 399.955,-729.388"/>
<text text-anchor="middle" x="422" y="-743.4" font-family="Times,serif" font-size="14.00">/(/</text>
</g>
<!-- invalid -->
<g id="node30" class="node"><title>invalid</title>
<ellipse fill="none" stroke="black" cx="468" cy="-620" rx="36.0055" ry="18"/>
<text text-anchor="middle" x="468" y="-614.4" font-family="Times,serif" font-size="14.00">invalid</text>
</g>
<!-- begin&#45;&gt;invalid -->
<g id="edge38" class="edge"><title>begin&#45;&gt;invalid</title>
<path fill="none" stroke="black" d="M447.418,-773.918C451.421,-743.981 459.456,-683.897 464.216,-648.299"/>
<polygon fill="black" stroke="black" points="467.724,-648.473 465.58,-638.098 460.785,-647.546 467.724,-648.473"/>
<text text-anchor="middle" x="472.5" y="-700.4" font-family="Times,serif" font-size="14.00">/[^s]/</text>
</g>
<!-- value_end -->
<g id="node2" class="node"><title>value_end</title>
<ellipse fill="none" stroke="black" cx="305" cy="-190" rx="46.877" ry="18"/>
<text text-anchor="middle" x="305" y="-184.4" font-family="Times,serif" font-size="14.00">value_end</text>
</g>
<!-- game_node -->
<g id="node3" class="node"><title>game_node</title>
<ellipse fill="none" stroke="black" cx="362" cy="-620" rx="51.9298" ry="18"/>
<text text-anchor="middle" x="362" y="-614.4" font-family="Times,serif" font-size="14.00">game_node</text>
</g>
<!-- value_end&#45;&gt;game_node -->
<g id="edge2" class="edge"><title>value_end&#45;&gt;game_node</title>
<path fill="none" stroke="black" d="M317.865,-207.459C328.889,-224.171 343,-250.536 343,-276 343,-534 343,-534 343,-534 343,-553.754 347.839,-575.471 352.632,-592.14"/>
<polygon fill="black" stroke="black" points="349.312,-593.252 355.567,-601.804 356.01,-591.218 349.312,-593.252"/>
<text text-anchor="middle" x="349" y="-399.4" font-family="Times,serif" font-size="14.00">/;/</text>
</g>
<!-- var_begin -->
<g id="node5" class="node"><title>var_begin</title>
<ellipse fill="none" stroke="black" cx="315" cy="-18" rx="44.9809" ry="18"/>
<text text-anchor="middle" x="315" y="-12.4" font-family="Times,serif" font-size="14.00">var_begin</text>
</g>
<!-- value_end&#45;&gt;var_begin -->
<g id="edge4" class="edge"><title>value_end&#45;&gt;var_begin</title>
<path fill="none" stroke="black" d="M306.051,-171.918C307.792,-141.981 311.285,-81.8972 313.355,-46.2989"/>
<polygon fill="black" stroke="black" points="316.861,-46.2841 313.948,-36.0977 309.873,-45.8777 316.861,-46.2841"/>
<text text-anchor="middle" x="317" y="-98.4" font-family="Times,serif" font-size="14.00">/(/</text>
</g>
<!-- prop_name_begin -->
<g id="node7" class="node"><title>prop_name_begin</title>
<ellipse fill="none" stroke="black" cx="227" cy="-534" rx="74.0375" ry="18"/>
<text text-anchor="middle" x="227" y="-528.4" font-family="Times,serif" font-size="14.00">prop_name_begin</text>
</g>
<!-- value_end&#45;&gt;prop_name_begin -->
<g id="edge6" class="edge"><title>value_end&#45;&gt;prop_name_begin</title>
<path fill="none" stroke="black" d="M303.457,-208.299C301.397,-229.28 297.037,-264.57 289,-294 282.695,-317.089 276.051,-321.128 269,-344 251.609,-400.415 238.39,-468.344 231.751,-505.78"/>
<polygon fill="black" stroke="black" points="228.25,-505.482 229.98,-515.934 235.146,-506.685 228.25,-505.482"/>
<text text-anchor="middle" x="299" y="-356.4" font-family="Times,serif" font-size="14.00">/[a&#45;zA&#45;Z]/</text>
</g>
<!-- value_begin -->
<g id="node9" class="node"><title>value_begin</title>
<ellipse fill="none" stroke="black" cx="156" cy="-362" rx="53.8258" ry="18"/>
<text text-anchor="middle" x="156" y="-356.4" font-family="Times,serif" font-size="14.00">value_begin</text>
</g>
<!-- value_end&#45;&gt;value_begin -->
<g id="edge8" class="edge"><title>value_end&#45;&gt;value_begin</title>
<path fill="none" stroke="black" d="M296.8,-207.907C281.57,-240.586 248.766,-308.171 230,-326 222.229,-333.383 212.658,-339.53 203.008,-344.532"/>
<polygon fill="black" stroke="black" points="201.275,-341.482 193.789,-348.98 204.317,-347.787 201.275,-341.482"/>
<text text-anchor="middle" x="278.5" y="-270.4" font-family="Times,serif" font-size="14.00">/[/</text>
</g>
<!-- var_end -->
<g id="node11" class="node"><title>var_end</title>
<ellipse fill="none" stroke="black" cx="432" cy="-104" rx="38.0318" ry="18"/>
<text text-anchor="middle" x="432" y="-98.4" font-family="Times,serif" font-size="14.00">var_end</text>
</g>
<!-- value_end&#45;&gt;var_end -->
<g id="edge10" class="edge"><title>value_end&#45;&gt;var_end</title>
<path fill="none" stroke="black" d="M328.294,-174.226C348.903,-160.271 379.11,-139.815 401.613,-124.577"/>
<polygon fill="black" stroke="black" points="403.81,-127.317 410.127,-118.811 399.885,-121.52 403.81,-127.317"/>
<text text-anchor="middle" x="383.5" y="-141.4" font-family="Times,serif" font-size="14.00">/)/</text>
</g>
<!-- game_node&#45;&gt;var_begin -->
<g id="edge30" class="edge"><title>game_node&#45;&gt;var_begin</title>
<path fill="none" stroke="black" d="M310.134,-618.406C210.038,-613.913 0,-596.981 0,-534 0,-534 0,-534 0,-104 0,-50.6429 170.325,-29.2548 260.484,-21.671"/>
<polygon fill="black" stroke="black" points="260.852,-25.1526 270.536,-20.8546 260.286,-18.1756 260.852,-25.1526"/>
<text text-anchor="middle" x="6" y="-313.4" font-family="Times,serif" font-size="14.00">/(/</text>
</g>
<!-- game_node&#45;&gt;prop_name_begin -->
<g id="edge32" class="edge"><title>game_node&#45;&gt;prop_name_begin</title>
<path fill="none" stroke="black" d="M320.407,-608.879C303.49,-603.132 284.351,-594.976 269,-584 260.009,-577.571 251.774,-568.786 245.024,-560.373"/>
<polygon fill="black" stroke="black" points="247.635,-558.025 238.795,-552.184 242.064,-562.263 247.635,-558.025"/>
<text text-anchor="middle" x="299" y="-571.4" font-family="Times,serif" font-size="14.00">/[a&#45;zA&#45;Z]/</text>
</g>
<!-- game_node&#45;&gt;var_end -->
<g id="edge34" class="edge"><title>game_node&#45;&gt;var_end</title>
<path fill="none" stroke="black" d="M384.734,-603.648C403.478,-588.089 427,-562.822 427,-534 427,-534 427,-534 427,-190 427,-170.739 428.265,-149.091 429.523,-132.334"/>
<polygon fill="black" stroke="black" points="433.033,-132.348 430.335,-122.102 426.055,-131.794 433.033,-132.348"/>
<text text-anchor="middle" x="433.5" y="-356.4" font-family="Times,serif" font-size="14.00">/)/</text>
</g>
<!-- var_begin&#45;&gt;game_node -->
<g id="edge50" class="edge"><title>var_begin&#45;&gt;game_node</title>
<path fill="none" stroke="black" d="M324.456,-35.8352C342.706,-71.9688 381,-156.861 381,-233 381,-534 381,-534 381,-534 381,-553.754 376.161,-575.471 371.368,-592.14"/>
<polygon fill="black" stroke="black" points="367.99,-591.218 368.433,-601.804 374.688,-593.252 367.99,-591.218"/>
<text text-anchor="middle" x="387" y="-313.4" font-family="Times,serif" font-size="14.00">/;/</text>
</g>
<!-- prop_name_begin&#45;&gt;value_begin -->
<g id="edge42" class="edge"><title>prop_name_begin&#45;&gt;value_begin</title>
<path fill="none" stroke="black" d="M220.392,-515.831C212.717,-494.969 199.505,-459.788 187,-430 181.333,-416.501 174.639,-401.692 168.925,-389.349"/>
<polygon fill="black" stroke="black" points="171.988,-387.636 164.59,-380.051 165.644,-390.594 171.988,-387.636"/>
<text text-anchor="middle" x="208.5" y="-442.4" font-family="Times,serif" font-size="14.00">/[/</text>
</g>
<!-- prop_name -->
<g id="node32" class="node"><title>prop_name</title>
<ellipse fill="none" stroke="black" cx="128" cy="-448" rx="49.9024" ry="18"/>
<text text-anchor="middle" x="128" y="-442.4" font-family="Times,serif" font-size="14.00">prop_name</text>
</g>
<!-- prop_name_begin&#45;&gt;prop_name -->
<g id="edge40" class="edge"><title>prop_name_begin&#45;&gt;prop_name</title>
<path fill="none" stroke="black" d="M174.032,-521.222C161.352,-515.904 148.919,-508.44 140,-498 134.759,-491.865 131.722,-483.829 129.988,-475.999"/>
<polygon fill="black" stroke="black" points="133.424,-475.319 128.381,-466.002 126.512,-476.43 133.424,-475.319"/>
<text text-anchor="middle" x="170" y="-485.4" font-family="Times,serif" font-size="14.00">/[a&#45;zA&#45;Z]/</text>
</g>
<!-- value_begin&#45;&gt;value_end -->
<g id="edge22" class="edge"><title>value_begin&#45;&gt;value_end</title>
<path fill="none" stroke="black" d="M168.834,-344.173C184.296,-323.026 211.394,-286.987 237,-258 250.49,-242.729 266.573,-226.563 279.71,-213.827"/>
<polygon fill="black" stroke="black" points="282.281,-216.211 287.063,-206.757 277.429,-211.165 282.281,-216.211"/>
<text text-anchor="middle" x="243" y="-270.4" font-family="Times,serif" font-size="14.00">/]/</text>
</g>
<!-- value -->
<g id="node17" class="node"><title>value</title>
<ellipse fill="none" stroke="black" cx="104" cy="-276" rx="29.1856" ry="18"/>
<text text-anchor="middle" x="104" y="-270.4" font-family="Times,serif" font-size="14.00">value</text>
</g>
<!-- value_begin&#45;&gt;value -->
<g id="edge18" class="edge"><title>value_begin&#45;&gt;value</title>
<path fill="none" stroke="black" d="M145.226,-344.181C137.829,-331.949 127.895,-315.519 119.632,-301.853"/>
<polygon fill="black" stroke="black" points="122.399,-299.665 114.23,-292.919 116.409,-303.287 122.399,-299.665"/>
<text text-anchor="middle" x="148.5" y="-313.4" font-family="Times,serif" font-size="14.00">/[^]]/</text>
</g>
<!-- value_escape -->
<g id="node19" class="node"><title>value_escape</title>
<ellipse fill="none" stroke="black" cx="86" cy="-190" rx="58.1142" ry="18"/>
<text text-anchor="middle" x="86" y="-184.4" font-family="Times,serif" font-size="14.00">value_escape</text>
</g>
<!-- value_begin&#45;&gt;value_escape -->
<g id="edge20" class="edge"><title>value_begin&#45;&gt;value_escape</title>
<path fill="none" stroke="black" d="M120.142,-348.39C96.9847,-337.499 68.706,-319.751 55,-294 41.8323,-269.261 54.4333,-238.158 67.3026,-216.44"/>
<polygon fill="black" stroke="black" points="70.4043,-218.082 72.7602,-207.752 64.4769,-214.358 70.4043,-218.082"/>
<text text-anchor="middle" x="60.5" y="-270.4" font-family="Times,serif" font-size="14.00">/\/</text>
</g>
<!-- var_end&#45;&gt;game_node -->
<g id="edge12" class="edge"><title>var_end&#45;&gt;game_node</title>
<path fill="none" stroke="black" d="M446.651,-120.823C459.451,-137.289 476,-163.669 476,-190 476,-534 476,-534 476,-534 476,-568.712 441.898,-591.18 410.998,-604.413"/>
<polygon fill="black" stroke="black" points="409.514,-601.237 401.552,-608.227 412.135,-607.728 409.514,-601.237"/>
<text text-anchor="middle" x="482" y="-356.4" font-family="Times,serif" font-size="14.00">/;/</text>
</g>
<!-- var_end&#45;&gt;var_begin -->
<g id="edge14" class="edge"><title>var_end&#45;&gt;var_begin</title>
<path fill="none" stroke="black" d="M415.463,-87.2539C404.938,-77.0412 390.744,-64.0622 377,-54 369.024,-48.1611 360.031,-42.4804 351.418,-37.4218"/>
<polygon fill="black" stroke="black" points="353.057,-34.3268 342.639,-32.3947 349.578,-40.4014 353.057,-34.3268"/>
<text text-anchor="middle" x="399" y="-55.4" font-family="Times,serif" font-size="14.00">/(/</text>
</g>
<!-- game_end -->
<g id="node15" class="node"><title>game_end</title>
<ellipse fill="none" stroke="black" cx="434" cy="-18" rx="46.877" ry="18"/>
<text text-anchor="middle" x="434" y="-12.4" font-family="Times,serif" font-size="14.00">game_end</text>
</g>
<!-- var_end&#45;&gt;game_end -->
<g id="edge16" class="edge"><title>var_end&#45;&gt;game_end</title>
<path fill="none" stroke="black" d="M432.424,-85.7616C432.689,-74.3597 433.036,-59.4342 433.337,-46.494"/>
<polygon fill="black" stroke="black" points="436.843,-46.2908 433.576,-36.2121 429.845,-46.128 436.843,-46.2908"/>
<text text-anchor="middle" x="442" y="-55.4" font-family="Times,serif" font-size="14.00">nil</text>
</g>
<!-- value&#45;&gt;value_end -->
<g id="edge28" class="edge"><title>value&#45;&gt;value_end</title>
<path fill="none" stroke="black" d="M123.83,-262.754C140.842,-251.816 166.293,-236.445 190,-226 210.977,-216.758 235.064,-208.832 255.757,-202.789"/>
<polygon fill="black" stroke="black" points="256.958,-206.086 265.614,-199.976 255.037,-199.355 256.958,-206.086"/>
<text text-anchor="middle" x="196" y="-227.4" font-family="Times,serif" font-size="14.00">/]/</text>
</g>
<!-- value&#45;&gt;value -->
<g id="edge26" class="edge"><title>value&#45;&gt;value</title>
<path fill="none" stroke="black" d="M130.574,-283.806C141.629,-284.344 151,-281.742 151,-276 151,-272.142 146.77,-269.701 140.641,-268.679"/>
<polygon fill="black" stroke="black" points="140.731,-265.179 130.574,-268.194 140.394,-272.171 140.731,-265.179"/>
<text text-anchor="middle" x="165.5" y="-270.4" font-family="Times,serif" font-size="14.00">/[^]]/</text>
</g>
<!-- value&#45;&gt;value_escape -->
<g id="edge24" class="edge"><title>value&#45;&gt;value_escape</title>
<path fill="none" stroke="black" d="M100.482,-257.929C98.6063,-248.418 96.2306,-236.567 94,-226 93.4678,-223.479 92.9051,-220.86 92.3348,-218.237"/>
<polygon fill="black" stroke="black" points="95.7147,-217.311 90.1452,-208.298 88.8786,-218.817 95.7147,-217.311"/>
<text text-anchor="middle" x="102.5" y="-227.4" font-family="Times,serif" font-size="14.00">/\/</text>
</g>
<!-- value_escape&#45;&gt;value -->
<g id="edge48" class="edge"><title>value_escape&#45;&gt;value</title>
<path fill="none" stroke="black" d="M80.8709,-208.359C79.0108,-217.95 78.0151,-229.784 81,-240 82.0829,-243.706 83.6766,-247.394 85.5286,-250.918"/>
<polygon fill="black" stroke="black" points="82.6995,-253.004 90.8605,-259.76 88.6941,-249.389 82.6995,-253.004"/>
<text text-anchor="middle" x="86.5" y="-227.4" font-family="Times,serif" font-size="14.00">/./</text>
</g>
<!-- game_begin&#45;&gt;game_node -->
<g id="edge44" class="edge"><title>game_begin&#45;&gt;game_node</title>
<path fill="none" stroke="black" d="M373.819,-687.762C371.81,-676.246 369.175,-661.135 366.902,-648.106"/>
<polygon fill="black" stroke="black" points="370.343,-647.462 365.177,-638.212 363.447,-648.665 370.343,-647.462"/>
<text text-anchor="middle" x="377" y="-657.4" font-family="Times,serif" font-size="14.00">/;/</text>
</g>
<!-- game_begin&#45;&gt;invalid -->
<g id="edge46" class="edge"><title>game_begin&#45;&gt;invalid</title>
<path fill="none" stroke="black" d="M392.991,-688.421C402.12,-678.625 413.921,-666.351 425,-656 430.067,-651.266 435.642,-646.38 441.052,-641.793"/>
<polygon fill="black" stroke="black" points="443.348,-644.435 448.779,-635.338 438.86,-639.063 443.348,-644.435"/>
<text text-anchor="middle" x="439.5" y="-657.4" font-family="Times,serif" font-size="14.00">/[^s]/</text>
</g>
<!-- prop_name&#45;&gt;value_begin -->
<g id="edge52" class="edge"><title>prop_name&#45;&gt;value_begin</title>
<path fill="none" stroke="black" d="M133.938,-429.762C137.75,-418.053 142.772,-402.629 147.061,-389.454"/>
<polygon fill="black" stroke="black" points="150.399,-390.509 150.166,-379.917 143.743,-388.342 150.399,-390.509"/>
<text text-anchor="middle" x="150.5" y="-399.4" font-family="Times,serif" font-size="14.00">/[/</text>
</g>
</g>
</svg>
