<?xml version="1.0" encoding="UTF-8" standalone="no"?>
<!DOCTYPE svg PUBLIC "-//W3C//DTD SVG 1.1//EN"
 "http://www.w3.org/Graphics/SVG/1.1/DTD/svg11.dtd">
<!-- Generated by graphviz version 2.24.0 (20090616.2323)
 -->
<!-- Title: SGF_STATE_MACHINE Pages: 1 -->
<svg width="526pt" height="818pt"
 viewBox="0.00 0.00 526.00 818.00" xmlns="http://www.w3.org/2000/svg" xmlns:xlink="http://www.w3.org/1999/xlink">
<g id="graph1" class="graph" transform="scale(1 1) rotate(0) translate(4 814)">
<title>SGF_STATE_MACHINE</title>
<polygon fill="white" stroke="white" points="-4,5 -4,-814 523,-814 523,5 -4,5"/>
<!-- begin -->
<g id="node1" class="node"><title>begin</title>
<ellipse fill="none" stroke="black" cx="445" cy="-792" rx="29.8234" ry="18"/>
<text text-anchor="middle" x="445" y="-786.4" font-family="Times,serif" font-size="14.00">begin</text>
</g>
<!-- game_begin -->
<g id="node28" class="node"><title>game_begin</title>
<ellipse fill="none" stroke="black" cx="377" cy="-706" rx="54.9558" ry="18"/>
<text text-anchor="middle" x="377" y="-700.4" font-family="Times,serif" font-size="14.00">game_begin</text>
</g>
<!-- begin&#45;&gt;game_begin -->
<g id="edge36" class="edge"><title>begin&#45;&gt;game_begin</title>
<path fill="none" stroke="black" d="M431.889,-775.418C422.081,-763.015 408.487,-745.822 397.282,-731.651"/>
<polygon fill="black" stroke="black" points="399.955,-729.388 391.007,-723.715 394.464,-733.73 399.955,-729.388"/>
<text text-anchor="middle" x="422" y="-743.4" font-family="Times,serif" font-size="14.00">/(/</text>
</g>
<!-- invalid -->
<g id="node30" class="node"><title>invalid</title>
<ellipse fill="none" stroke="black" cx="468" cy="-620" rx="36.0055" ry="18"/>
<text text-anchor="middle" x="468" y="-614.4" font-family="Times,serif" font-size="14.00">invalid</text>
</g>
<!-- begin&#45;&gt;invalid -->
<g id="edge38" class="edge"><title>begin&#45;&gt;invalid</title>
<path fill="none" stroke="black" d="M447.418,-773.918C451.421,-743.981 459.456,-683.897 464.216,-648.299"/>
<polygon fill="black" stroke="black" points="467.724,-648.473 465.58,-638.098 460.785,-647.546 467.724,-648.473"/>
<text text-anchor="middle" x="472.5" y="-700.4" font-family="Times,serif" font-size="14.00">/[^s]/</text>
</g>
<!-- value_end -->
<g id="node2" class="node"><title>value_end</title>
<ellipse fill="none" stroke="black" cx="305" cy="-190" rx="46.877" ry="18"/>
<text text-anchor="middle" x="305" y="-184.4" font-family="Times,serif" font-size="14.00">value_end</text>
</g>
<!-- game_node -->
<g id="node3" class="node"><title>game_node</title>
<ellipse fill="none" stroke="black" cx="362" cy="-620" rx="51.9298" ry="18"/>
<text text-anchor="middle" x="362" y="-614.4" font-family="Times,serif" font-size="14.00">game_node</text>
</g>
<!-- value_end&#45;&gt;game_node -->
<g id="edge2" class="edge"><title>value_end&#45;&gt;game_node</title>
<path fill="none" stroke="black" d="M317.865,-207.459C328.889,-224.171 343,-250.536 343,-276 343,-534 343,-534 343,-534 343,-553.754 347.839,-575.471 352.632,-592.14"/>
<polygon fill="black" stroke="black" points="349.312,-593.252 355.567,-601.804 356.01,-591.218 349.312,-593.252"/>
<text text-anchor="middle" x="349" y="-399.4" font-family="Times,serif" font-size="14.00">/;/</text>
</g>
<!-- var_begin -->
<g id="node5" class="node"><title>var_begin</title>
<ellipse fill="none" stroke="black" cx="331" cy="-18" rx="44.9809" ry="18"/>
<text text-anchor="middle" x="331" y="-12.4" font-family="Times,serif" font-size="14.00">var_begin</text>
</g>
<!-- value_end&#45;&gt;var_begin -->
<g id="edge4" class="edge"><title>value_end&#45;&gt;var_begin</title>
<path fill="none" stroke="black" d="M307.733,-171.918C312.259,-141.981 321.341,-81.8972 326.722,-46.2989"/>
<polygon fill="black" stroke="black" points="330.23,-46.5086 328.264,-36.0977 323.309,-45.4623 330.23,-46.5086"/>
<text text-anchor="middle" x="327" y="-98.4" font-family="Times,serif" font-size="14.00">/(/</text>
</g>
<!-- prop_name_begin -->
<g id="node7" class="node"><title>prop_name_begin</title>
<ellipse fill="none" stroke="black" cx="227" cy="-534" rx="74.0375" ry="18"/>
<text text-anchor="middle" x="227" y="-528.4" font-family="Times,serif" font-size="14.00">prop_name_begin</text>
</g>
<!-- value_end&#45;&gt;prop_name_begin -->
<g id="edge6" class="edge"><title>value_end&#45;&gt;prop_name_begin</title>
<path fill="none" stroke="black" d="M303.457,-208.299C301.397,-229.28 297.037,-264.57 289,-294 282.695,-317.089 276.051,-321.128 269,-344 251.609,-400.415 238.39,-468.344 231.751,-505.78"/>
<polygon fill="black" stroke="black" points="228.25,-505.482 229.98,-515.934 235.146,-506.685 228.25,-505.482"/>
<text text-anchor="middle" x="299" y="-356.4" font-family="Times,serif" font-size="14.00">/[a&#45;zA&#45;Z]/</text>
</g>
<!-- value_begin -->
<g id="node9" class="node"><title>value_begin</title>
<ellipse fill="none" stroke="black" cx="156" cy="-362" rx="53.8258" ry="18"/>
<text text-anchor="middle" x="156" y="-356.4" font-family="Times,serif" font-size="14.00">value_begin</text>
</g>
<!-- value_end&#45;&gt;value_begin -->
<g id="edge8" class="edge"><title>value_end&#45;&gt;value_begin</title>
<path fill="none" stroke="black" d="M296.8,-207.907C281.57,-240.586 248.766,-308.171 230,-326 222.229,-333.383 212.658,-339.53 203.008,-344.532"/>
<polygon fill="black" stroke="black" points="201.275,-341.482 193.789,-348.98 204.317,-347.787 201.275,-341.482"/>
<text text-anchor="middle" x="278.5" y="-270.4" font-family="Times,serif" font-size="14.00">/[/</text>
</g>
<!-- game_var_end -->
<g id="node11" class="node"><title>game_var_end</title>
<ellipse fill="none" stroke="black" cx="456" cy="-104" rx="62.0357" ry="18"/>
<text text-anchor="middle" x="456" y="-98.4" font-family="Times,serif" font-size="14.00">game_var_end</text>
</g>
<!-- value_end&#45;&gt;game_var_end -->
<g id="edge10" class="edge"><title>value_end&#45;&gt;game_var_end</title>
<path fill="none" stroke="black" d="M331.302,-175.02C355.519,-161.227 391.697,-140.623 418.857,-125.154"/>
<polygon fill="black" stroke="black" points="420.735,-128.113 427.692,-120.122 417.271,-122.03 420.735,-128.113"/>
<text text-anchor="middle" x="396.5" y="-141.4" font-family="Times,serif" font-size="14.00">/)/</text>
</g>
<!-- game_node&#45;&gt;var_begin -->
<g id="edge30" class="edge"><title>game_node&#45;&gt;var_begin</title>
<path fill="none" stroke="black" d="M310.134,-618.406C210.038,-613.913 0,-596.981 0,-534 0,-534 0,-534 0,-104 0,-47.6305 182.102,-27.5689 276.167,-20.9663"/>
<polygon fill="black" stroke="black" points="276.618,-24.4439 286.36,-20.2793 276.147,-17.4597 276.618,-24.4439"/>
<text text-anchor="middle" x="6" y="-313.4" font-family="Times,serif" font-size="14.00">/(/</text>
</g>
<!-- game_node&#45;&gt;prop_name_begin -->
<g id="edge32" class="edge"><title>game_node&#45;&gt;prop_name_begin</title>
<path fill="none" stroke="black" d="M320.407,-608.879C303.49,-603.132 284.351,-594.976 269,-584 260.009,-577.571 251.774,-568.786 245.024,-560.373"/>
<polygon fill="black" stroke="black" points="247.635,-558.025 238.795,-552.184 242.064,-562.263 247.635,-558.025"/>
<text text-anchor="middle" x="299" y="-571.4" font-family="Times,serif" font-size="14.00">/[a&#45;zA&#45;Z]/</text>
</g>
<!-- game_node&#45;&gt;game_var_end -->
<g id="edge34" class="edge"><title>game_node&#45;&gt;game_var_end</title>
<path fill="none" stroke="black" d="M384.734,-603.648C403.478,-588.089 427,-562.822 427,-534 427,-534 427,-534 427,-190 427,-169.452 434.525,-147.523 441.909,-130.951"/>
<polygon fill="black" stroke="black" points="445.094,-132.403 446.182,-121.864 438.759,-129.424 445.094,-132.403"/>
<text text-anchor="middle" x="433.5" y="-356.4" font-family="Times,serif" font-size="14.00">/)/</text>
</g>
<!-- var_begin&#45;&gt;game_node -->
<g id="edge50" class="edge"><title>var_begin&#45;&gt;game_node</title>
<path fill="none" stroke="black" d="M338.058,-35.7951C351.84,-72.2015 381,-158.08 381,-233 381,-534 381,-534 381,-534 381,-553.754 376.161,-575.471 371.368,-592.14"/>
<polygon fill="black" stroke="black" points="367.99,-591.218 368.433,-601.804 374.688,-593.252 367.99,-591.218"/>
<text text-anchor="middle" x="387" y="-313.4" font-family="Times,serif" font-size="14.00">/;/</text>
</g>
<!-- prop_name_begin&#45;&gt;value_begin -->
<g id="edge42" class="edge"><title>prop_name_begin&#45;&gt;value_begin</title>
<path fill="none" stroke="black" d="M220.392,-515.831C212.717,-494.969 199.505,-459.788 187,-430 181.333,-416.501 174.639,-401.692 168.925,-389.349"/>
<polygon fill="black" stroke="black" points="171.988,-387.636 164.59,-380.051 165.644,-390.594 171.988,-387.636"/>
<text text-anchor="middle" x="208.5" y="-442.4" font-family="Times,serif" font-size="14.00">/[/</text>
</g>
<!-- prop_name -->
<g id="node32" class="node"><title>prop_name</title>
<ellipse fill="none" stroke="black" cx="128" cy="-448" rx="49.9024" ry="18"/>
<text text-anchor="middle" x="128" y="-442.4" font-family="Times,serif" font-size="14.00">prop_name</text>
</g>
<!-- prop_name_begin&#45;&gt;prop_name -->
<g id="edge40" class="edge"><title>prop_name_begin&#45;&gt;prop_name</title>
<path fill="none" stroke="black" d="M174.032,-521.222C161.352,-515.904 148.919,-508.44 140,-498 134.759,-491.865 131.722,-483.829 129.988,-475.999"/>
<polygon fill="black" stroke="black" points="133.424,-475.319 128.381,-466.002 126.512,-476.43 133.424,-475.319"/>
<text text-anchor="middle" x="170" y="-485.4" font-family="Times,serif" font-size="14.00">/[a&#45;zA&#45;Z]/</text>
</g>
<!-- value_begin&#45;&gt;value_end -->
<g id="edge22" class="edge"><title>value_begin&#45;&gt;value_end</title>
<path fill="none" stroke="black" d="M168.834,-344.173C184.296,-323.026 211.394,-286.987 237,-258 250.49,-242.729 266.573,-226.563 279.71,-213.827"/>
<polygon fill="black" stroke="black" points="282.281,-216.211 287.063,-206.757 277.429,-211.165 282.281,-216.211"/>
<text text-anchor="middle" x="243" y="-270.4" font-family="Times,serif" font-size="14.00">/]/</text>
</g>
<!-- value -->
<g id="node17" class="node"><title>value</title>
<ellipse fill="none" stroke="black" cx="104" cy="-276" rx="29.1856" ry="18"/>
<text text-anchor="middle" x="104" y="-270.4" font-family="Times,serif" font-size="14.00">value</text>
</g>
<!-- value_begin&#45;&gt;value -->
<g id="edge18" class="edge"><title>value_begin&#45;&gt;value</title>
<path fill="none" stroke="black" d="M145.226,-344.181C137.829,-331.949 127.895,-315.519 119.632,-301.853"/>
<polygon fill="black" stroke="black" points="122.399,-299.665 114.23,-292.919 116.409,-303.287 122.399,-299.665"/>
<text text-anchor="middle" x="148.5" y="-313.4" font-family="Times,serif" font-size="14.00">/[^]]/</text>
</g>
<!-- value_escape -->
<g id="node19" class="node"><title>value_escape</title>
<ellipse fill="none" stroke="black" cx="86" cy="-190" rx="58.1142" ry="18"/>
<text text-anchor="middle" x="86" y="-184.4" font-family="Times,serif" font-size="14.00">value_escape</text>
</g>
<!-- value_begin&#45;&gt;value_escape -->
<g id="edge20" class="edge"><title>value_begin&#45;&gt;value_escape</title>
<path fill="none" stroke="black" d="M120.142,-348.39C96.9847,-337.499 68.706,-319.751 55,-294 41.8323,-269.261 54.4333,-238.158 67.3026,-216.44"/>
<polygon fill="black" stroke="black" points="70.4043,-218.082 72.7602,-207.752 64.4769,-214.358 70.4043,-218.082"/>
<text text-anchor="middle" x="60.5" y="-270.4" font-family="Times,serif" font-size="14.00">/\/</text>
</g>
<!-- game_var_end&#45;&gt;game_node -->
<g id="edge12" class="edge"><title>game_var_end&#45;&gt;game_node</title>
<path fill="none" stroke="black" d="M462.771,-122.169C468.573,-139.383 476,-166.087 476,-190 476,-534 476,-534 476,-534 476,-568.712 441.898,-591.18 410.998,-604.413"/>
<polygon fill="black" stroke="black" points="409.514,-601.237 401.552,-608.227 412.135,-607.728 409.514,-601.237"/>
<text text-anchor="middle" x="482" y="-356.4" font-family="Times,serif" font-size="14.00">/;/</text>
</g>
<!-- game_var_end&#45;&gt;var_begin -->
<g id="edge14" class="edge"><title>game_var_end&#45;&gt;var_begin</title>
<path fill="none" stroke="black" d="M431.602,-87.2142C411.744,-73.552 383.588,-54.1807 362.111,-39.4045"/>
<polygon fill="black" stroke="black" points="363.876,-36.3703 353.654,-33.5856 359.908,-42.1372 363.876,-36.3703"/>
<text text-anchor="middle" x="407" y="-55.4" font-family="Times,serif" font-size="14.00">/(/</text>
</g>
<!-- game_end -->
<g id="node15" class="node"><title>game_end</title>
<ellipse fill="none" stroke="black" cx="456" cy="-18" rx="46.877" ry="18"/>
<text text-anchor="middle" x="456" y="-12.4" font-family="Times,serif" font-size="14.00">game_end</text>
</g>
<!-- game_var_end&#45;&gt;game_end -->
<g id="edge16" class="edge"><title>game_var_end&#45;&gt;game_end</title>
<path fill="none" stroke="black" d="M456,-85.7616C456,-74.3597 456,-59.4342 456,-46.494"/>
<polygon fill="black" stroke="black" points="459.5,-46.2121 456,-36.2121 452.5,-46.2121 459.5,-46.2121"/>
<text text-anchor="middle" x="464" y="-55.4" font-family="Times,serif" font-size="14.00">nil</text>
</g>
<!-- value&#45;&gt;value_end -->
<g id="edge28" class="edge"><title>value&#45;&gt;value_end</title>
<path fill="none" stroke="black" d="M123.83,-262.754C140.842,-251.816 166.293,-236.445 190,-226 210.977,-216.758 235.064,-208.832 255.757,-202.789"/>
<polygon fill="black" stroke="black" points="256.958,-206.086 265.614,-199.976 255.037,-199.355 256.958,-206.086"/>
<text text-anchor="middle" x="196" y="-227.4" font-family="Times,serif" font-size="14.00">/]/</text>
</g>
<!-- value&#45;&gt;value -->
<g id="edge26" class="edge"><title>value&#45;&gt;value</title>
<path fill="none" stroke="black" d="M130.574,-283.806C141.629,-284.344 151,-281.742 151,-276 151,-272.142 146.77,-269.701 140.641,-268.679"/>
<polygon fill="black" stroke="black" points="140.731,-265.179 130.574,-268.194 140.394,-272.171 140.731,-265.179"/>
<text text-anchor="middle" x="165.5" y="-270.4" font-family="Times,serif" font-size="14.00">/[^]]/</text>
</g>
<!-- value&#45;&gt;value_escape -->
<g id="edge24" class="edge"><title>value&#45;&gt;value_escape</title>
<path fill="none" stroke="black" d="M101.041,-257.891C99.4092,-248.369 97.2593,-236.521 95,-226 94.4556,-223.465 93.8598,-220.837 93.2424,-218.208"/>
<polygon fill="black" stroke="black" points="96.5858,-217.145 90.8162,-208.259 89.7851,-218.803 96.5858,-217.145"/>
<text text-anchor="middle" x="103.5" y="-227.4" font-family="Times,serif" font-size="14.00">/\/</text>
</g>
<!-- value_escape&#45;&gt;value -->
<g id="edge48" class="edge"><title>value_escape&#45;&gt;value</title>
<path fill="none" stroke="black" d="M81.4943,-208.35C79.896,-217.938 79.1225,-229.773 82,-240 83.0329,-243.671 84.5555,-247.338 86.326,-250.85"/>
<polygon fill="black" stroke="black" points="83.3948,-252.773 91.4254,-259.684 89.4573,-249.274 83.3948,-252.773"/>
<text text-anchor="middle" x="87.5" y="-227.4" font-family="Times,serif" font-size="14.00">/./</text>
</g>
<!-- game_begin&#45;&gt;game_node -->
<g id="edge44" class="edge"><title>game_begin&#45;&gt;game_node</title>
<path fill="none" stroke="black" d="M373.819,-687.762C371.81,-676.246 369.175,-661.135 366.902,-648.106"/>
<polygon fill="black" stroke="black" points="370.343,-647.462 365.177,-638.212 363.447,-648.665 370.343,-647.462"/>
<text text-anchor="middle" x="377" y="-657.4" font-family="Times,serif" font-size="14.00">/;/</text>
</g>
<!-- game_begin&#45;&gt;invalid -->
<g id="edge46" class="edge"><title>game_begin&#45;&gt;invalid</title>
<path fill="none" stroke="black" d="M392.991,-688.421C402.12,-678.625 413.921,-666.351 425,-656 430.067,-651.266 435.642,-646.38 441.052,-641.793"/>
<polygon fill="black" stroke="black" points="443.348,-644.435 448.779,-635.338 438.86,-639.063 443.348,-644.435"/>
<text text-anchor="middle" x="439.5" y="-657.4" font-family="Times,serif" font-size="14.00">/[^s]/</text>
</g>
<!-- prop_name&#45;&gt;value_begin -->
<g id="edge52" class="edge"><title>prop_name&#45;&gt;value_begin</title>
<path fill="none" stroke="black" d="M133.938,-429.762C137.75,-418.053 142.772,-402.629 147.061,-389.454"/>
<polygon fill="black" stroke="black" points="150.399,-390.509 150.166,-379.917 143.743,-388.342 150.399,-390.509"/>
<text text-anchor="middle" x="150.5" y="-399.4" font-family="Times,serif" font-size="14.00">/[/</text>
</g>
</g>
</svg>
